<?xml version="1.0" encoding="UTF-8"?>
<svg width="556px" height="453px" viewBox="0 0 556 453" version="1.1" xmlns="http://www.w3.org/2000/svg" xmlns:xlink="http://www.w3.org/1999/xlink">
    <title>Group 5</title>
    <defs>
        <path d="M105.912755,23.839359 L117.652466,39.134344 C118.409515,40.1206594 119.582174,40.6988471 120.825533,40.6988471 L132.318825,40.6988471 C133.221946,40.6988471 134.098489,40.3932246 134.805827,39.831709 L142.512164,33.7140847 C144.242397,32.3405561 146.758493,32.6297174 148.132025,34.3599476 C148.189917,34.4328739 148.245245,34.5077994 148.297908,34.5845871 C155.081954,44.4763916 158.473978,46.5144783 158.473978,40.6988471 C158.473978,34.7279714 162.810119,28.7570958 171.482403,22.7862202 C172.799826,21.8791655 174.530946,21.844138 175.883985,22.6971535 L203.460409,40.0825359 C204.099071,40.4851763 204.838645,40.6988471 205.593634,40.6988471 L211.680818,40.6988471 C213.406928,40.6988471 214.806218,39.2995578 214.806218,37.573447 C214.806218,36.7826384 214.506437,36.0212299 213.967316,35.4426746 C191.948118,11.8142249 184.719753,-1.70530257e-13 192.28222,-1.70530257e-13 C199.829361,-1.70530257e-13 207.376502,-1.70530257e-13 214.923643,-1.70530257e-13 C217.132782,-1.70936069e-13 218.923643,1.790861 218.923643,4 L218.923643,7.62618648 C218.923643,9.18395061 219.828006,10.6000161 221.24129,11.2551932 L239.254981,19.6060674 C241.259226,20.5352051 243.637202,19.6636584 244.56634,17.6594133 C244.576725,17.6370123 244.586902,17.6145156 244.59687,17.5919261 L250.173743,4.95386111 C251.065609,2.93275473 253.427039,2.01732415 255.448146,2.90918968 C255.812708,3.07006244 256.151186,3.2845071 256.452368,3.54542039 L262.730872,8.98448368 C263.607903,9.74425466 264.111785,10.84743 264.111785,12.0077898 L264.111785,82.7749879 C264.111785,83.8176076 263.704691,84.8190229 262.977223,85.5659134 L229.404847,120.034608 C227.863457,121.617144 227.896818,124.149587 229.479357,125.690974 C229.506789,125.717693 229.534604,125.744017 229.562793,125.769937 C248.908165,143.558746 260.424495,152.45315 264.111785,152.45315 C267.810357,152.45315 280.111864,139.234433 301.016305,112.796999 L301.016305,112.796998 C302.386509,111.064129 304.902047,110.77013 306.634916,112.140334 C306.845366,112.306739 307.038539,112.493894 307.211519,112.698974 C316.050751,123.178477 320.470366,126.604339 320.470366,122.97656 C320.470366,118.993816 320.470366,115.011072 320.470366,111.028327 C320.470366,109.70461 321.125239,108.466619 322.219486,107.721737 L366.458052,77.6074182 C367.702612,76.760214 369.317468,76.6835982 370.636648,77.4091672 L377.421114,81.140727 C379.356785,82.205375 381.789023,81.499272 382.853671,79.5636017 C383.178505,78.9730117 383.34883,78.3099135 383.34883,77.6358858 L383.34883,71.0428935 C383.34883,68.8337545 385.139691,67.0428935 387.34883,67.0428935 L400.049512,67.0428935 C401.964331,67.0428935 403.61058,65.6858703 403.975998,63.8062424 C407.451111,45.9310839 410.926223,28.0559254 414.401336,10.1807669 C433.153375,6.8535851 451.905414,3.52640326 470.657453,0.19922142 C471.391375,0.0690013697 472.147083,0.146441777 472.83934,0.422808112 L494.022541,8.87966847 C495.889708,9.62509218 496.913462,11.6406008 496.414113,13.5880656 C485.706701,55.3470719 477.495419,76.226575 471.780268,76.226575 C465.991128,76.226575 482.85159,102.892477 522.361653,156.22428 C523.348,157.55569 523.411366,159.357397 522.520986,160.754807 L500.428276,195.428287 C499.831036,196.365628 498.870724,197.012215 497.777575,197.21303 L435.786049,208.60109 C433.613269,209.000237 432.175455,211.085197 432.574602,213.257978 C432.633301,213.57751 432.73071,213.888702 432.864675,214.184674 L441.002728,232.164265 C441.913676,234.176843 441.020628,236.546829 439.00805,237.457776 C438.998721,237.461999 438.989375,237.466186 438.980013,237.470337 L434.56344,239.428667 C432.543925,240.32413 431.632701,242.687187 432.528164,244.706702 C432.550045,244.75605 432.572923,244.804951 432.596784,244.853373 L441.649793,263.225317 C442.27839,264.500978 442.182412,266.014467 441.397706,267.200503 L432.259609,281.012172 C431.352287,282.383532 429.698153,283.059919 428.089926,282.717183 L405.099663,277.817633 C403.984476,277.579971 403.023721,276.877676 402.458812,275.887219 L393.622288,260.394077 C392.821655,258.990322 391.254999,258.206224 389.651458,258.40671 L336.907109,265.001185 C335.499467,265.177178 334.290342,266.085567 333.729378,267.388544 L315.030577,310.821089 C314.398785,312.288582 312.954317,313.23935 311.356601,313.23935 L292.281716,313.23935 C290.623591,313.23935 289.137374,314.262357 288.545358,315.811194 L253.342805,407.908445 C252.750789,409.457281 251.264572,410.480288 249.606447,410.480288 L181.896029,410.480288 C180.429756,410.480288 179.081005,411.282539 178.381118,412.570993 L175.375871,418.103494 C174.41682,419.869057 172.296863,420.649194 170.422125,419.926458 L149.302649,411.784616 C147.387327,411.046245 146.341816,408.97791 146.882985,406.997812 C154.891512,377.695241 156.774344,361.22878 152.531482,357.598429 C148.123357,353.826675 131.939167,351.940797 103.978911,351.940797 L103.978911,351.940797 L78.5922404,351.940797 C76.3831014,351.940797 74.5922404,353.731658 74.5922404,355.940797 L74.5922404,367.494896 C74.5922404,369.199536 73.5119287,370.716886 71.9011349,371.274684 L42.7636722,381.364632 C40.6761531,382.087515 38.3978725,380.981258 37.67499,378.893739 C37.6410102,378.795613 37.6108644,378.696201 37.5846212,378.595729 L32.9461379,360.837366 C32.4877272,359.08238 30.9057897,357.855526 29.0919363,357.848291 C24.793161,357.831144 22.6437733,355.861979 22.6437733,351.940797 C22.6437733,344.817974 22.6437733,323.6289 22.6437733,323.6289 C22.6437733,320.612976 22.6437733,317.597051 22.6437733,314.581127 C22.6437733,313.710449 22.3596849,312.863547 21.8346371,312.168994 L1.34113792,285.059399 C0.507164269,283.956186 0.302222222,282.500446 0.799192111,281.20986 L22.4565206,224.967749 C22.5808305,224.644927 22.7464921,224.339595 22.9493585,224.059395 L37.9174296,203.385433 C38.411473,202.703058 38.677458,201.882119 38.677458,201.039674 L38.677458,168.077731 C38.677458,167.608936 38.7598664,167.143791 38.9209212,166.703529 C43.1653766,155.100829 47.409832,143.498129 51.6542874,131.895428 C45.6180365,121.046117 39.5817855,110.196806 33.5455346,99.3474954 C32.6874537,97.8052158 32.9415884,95.8828263 34.1709592,94.6165022 L51.6295214,76.6331577 C51.6460317,76.6161511 51.6626929,76.5992916 51.679503,76.5825811 L60.0960583,68.2158914 C60.8513505,67.4650742 61.2760474,66.4440579 61.2760474,65.3790731 L61.2760474,43.2762257 C61.2760474,41.7067684 62.1938793,40.2823259 63.6230565,39.6337512 L101.086697,22.6323814 C102.780353,21.8637838 104.780313,22.3639657 105.912755,23.839359 Z" id="path-1"></path>
        <filter x="-5.4%" y="-4.0%" width="110.8%" height="113.5%" filterUnits="objectBoundingBox" id="filter-2">
            <feMorphology radius="2" operator="dilate" in="SourceAlpha" result="shadowSpreadOuter1"></feMorphology>
            <feOffset dx="0" dy="12" in="shadowSpreadOuter1" result="shadowOffsetOuter1"></feOffset>
            <feGaussianBlur stdDeviation="7" in="shadowOffsetOuter1" result="shadowBlurOuter1"></feGaussianBlur>
            <feComposite in="shadowBlurOuter1" in2="SourceAlpha" operator="out" result="shadowBlurOuter1"></feComposite>
            <feColorMatrix values="0 0 0 0 0   0 0 0 0 0   0 0 0 0 0  0 0 0 0.06 0" type="matrix" in="shadowBlurOuter1"></feColorMatrix>
        </filter>
        <filter x="-45.4%" y="-110.3%" width="190.9%" height="320.7%" filterUnits="objectBoundingBox" id="filter-3">
            <feGaussianBlur stdDeviation="3" in="SourceGraphic"></feGaussianBlur>
        </filter>
    </defs>
    <g id="Symbols" stroke="none" stroke-width="1" fill="none" fill-rule="evenodd">
        <g id="arrivare" transform="translate(-70.000000, -47.000000)">
            <g id="Group-5" transform="translate(86.000000, 51.000000)">
                <g id="Path-4">
                    <use fill="black" fill-opacity="1" filter="url(#filter-2)" xlink:href="#path-1"></use>
                    <use stroke="#FFFFFF" stroke-width="4" fill="#F5F0E9" fill-rule="evenodd" xlink:href="#path-1"></use>
                </g>
                <path d="M236.07,243 L236.07,234.134 L238.7935,234.134 L238.7935,232.275 L231.2535,232.275 L231.2535,234.134 L233.9705,234.134 L233.9705,243 L236.07,243 Z M240.901667,243 L240.901667,239.282 C240.901667,239.035 240.973167,238.80425 241.116167,238.58975 C241.259167,238.37525 241.447667,238.200833 241.681667,238.0665 C241.915667,237.932167 242.162667,237.865 242.422667,237.865 C242.591667,237.865 242.77475,237.89425 242.971917,237.95275 C243.169083,238.01125 243.341333,238.090333 243.488667,238.19 L243.488667,238.19 L244.320667,236.5065 C244.151667,236.398167 243.9415,236.309333 243.690167,236.24 C243.438833,236.170667 243.196167,236.136 242.962167,236.136 C242.5505,236.136 242.165917,236.23675 241.808417,236.43825 C241.450917,236.63975 241.148667,236.926833 240.901667,237.2995 L240.901667,237.2995 L240.901667,236.344 L238.906167,236.344 L238.906167,243 L240.901667,243 Z M248.079834,243.208 C248.781834,243.208 249.418834,243.056333 249.990834,242.753 C250.562834,242.449667 251.004834,242.029333 251.316834,241.492 L251.316834,241.492 L249.880334,240.7705 C249.633334,241.065167 249.376584,241.279667 249.110084,241.414 C248.843584,241.548333 248.537,241.6155 248.190334,241.6155 C247.822,241.6155 247.499167,241.545083 247.221834,241.40425 C246.9445,241.263417 246.728917,241.067333 246.575084,240.816 C246.42125,240.564667 246.344334,240.27 246.344334,239.932 L246.344334,239.932 L251.446834,239.932 C251.459834,239.819333 251.467417,239.742417 251.469584,239.70125 C251.47175,239.660083 251.472834,239.611333 251.472834,239.555 C251.472834,238.874667 251.326584,238.278833 251.034084,237.7675 C250.741584,237.256167 250.33425,236.856417 249.812084,236.56825 C249.289917,236.280083 248.682167,236.136 247.988834,236.136 C247.468834,236.136 246.985667,236.225917 246.539334,236.40575 C246.093,236.585583 245.700834,236.836917 245.362834,237.15975 C245.024834,237.482583 244.761584,237.8585 244.573084,238.2875 C244.384584,238.7165 244.290334,239.178 244.290334,239.672 C244.290334,240.343667 244.457167,240.946 244.790834,241.479 C245.1245,242.012 245.57625,242.433417 246.146084,242.74325 C246.715917,243.053083 247.3605,243.208 248.079834,243.208 Z M249.509834,238.827 L246.415834,238.827 C246.446167,238.571333 246.5285,238.350333 246.662834,238.164 C246.797167,237.977667 246.974834,237.834667 247.195834,237.735 C247.416834,237.635333 247.6725,237.5855 247.962834,237.5855 C248.235834,237.5855 248.480667,237.635333 248.697334,237.735 C248.914,237.834667 249.09275,237.977667 249.233584,238.164 C249.374417,238.350333 249.4665,238.571333 249.509834,238.827 L249.509834,238.827 Z M254.7835,243 L254.7835,239.061 C254.7835,238.801 254.840917,238.568083 254.95575,238.36225 C255.070584,238.156417 255.23525,237.993917 255.44975,237.87475 C255.66425,237.755583 255.918834,237.696 256.2135,237.696 C256.646834,237.696 256.988084,237.82925 257.23725,238.09575 C257.486417,238.36225 257.611,238.733833 257.611,239.2105 L257.611,239.2105 L257.611,243 L259.6065,243 L259.6065,238.788 C259.6065,238.259333 259.496,237.79675 259.275,237.40025 C259.054,237.00375 258.749584,236.693917 258.36175,236.47075 C257.973917,236.247583 257.524334,236.136 257.013,236.136 C256.549334,236.136 256.12575,236.222667 255.74225,236.396 C255.35875,236.569333 255.039167,236.799 254.7835,237.085 L254.7835,237.085 L254.7835,236.344 L252.788,236.344 L252.788,243 L254.7835,243 Z M263.573667,243.208 C263.842334,243.208 264.116417,243.173333 264.395917,243.104 C264.675417,243.034667 264.927834,242.939333 265.153167,242.818 L265.153167,242.818 L264.652667,241.219 C264.462,241.357667 264.262667,241.427 264.054667,241.427 C263.868334,241.427 263.72425,241.362 263.622417,241.232 C263.520584,241.102 263.469667,240.911333 263.469667,240.66 L263.469667,240.66 L263.469667,237.8585 L264.932167,237.8585 L264.932167,236.344 L263.469667,236.344 L263.469667,233.848 L261.474167,233.848 L261.474167,236.344 L260.583667,236.344 L260.583667,237.8585 L261.474167,237.8585 L261.474167,240.803 C261.474167,241.561333 261.658334,242.15175 262.026667,242.57425 C262.395,242.99675 262.910667,243.208 263.573667,243.208 Z M269.724834,243.208 C270.461501,243.208 271.124501,243.057417 271.713834,242.75625 C272.303167,242.455083 272.770084,242.039083 273.114584,241.50825 C273.459084,240.977417 273.631334,240.365333 273.631334,239.672 C273.631334,238.978667 273.459084,238.366583 273.114584,237.83575 C272.770084,237.304917 272.303167,236.888917 271.713834,236.58775 C271.124501,236.286583 270.461501,236.136 269.724834,236.136 C268.992501,236.136 268.330584,236.286583 267.739084,236.58775 C267.147584,236.888917 266.679584,237.304917 266.335084,237.83575 C265.990584,238.366583 265.818334,238.978667 265.818334,239.672 C265.818334,240.365333 265.991667,240.977417 266.338334,241.50825 C266.685001,242.039083 267.153001,242.455083 267.742334,242.75625 C268.331667,243.057417 268.992501,243.208 269.724834,243.208 Z M269.731334,241.505 C269.389001,241.505 269.080251,241.427 268.805084,241.271 C268.529917,241.115 268.312167,240.899417 268.151834,240.62425 C267.991501,240.349083 267.911334,240.031667 267.911334,239.672 C267.911334,239.312333 267.991501,238.994917 268.151834,238.71975 C268.312167,238.444583 268.529917,238.229 268.805084,238.073 C269.080251,237.917 269.389001,237.839 269.731334,237.839 C270.069334,237.839 270.377001,237.917 270.654334,238.073 C270.931667,238.229 271.150501,238.444583 271.310834,238.71975 C271.471167,238.994917 271.551334,239.312333 271.551334,239.672 C271.551334,240.031667 271.471167,240.349083 271.310834,240.62425 C271.150501,240.899417 270.931667,241.115 270.654334,241.271 C270.377001,241.427 270.069334,241.505 269.731334,241.505 Z" id="Trento" fill="#645B52" fill-rule="nonzero"></path>
                <path d="M94.944,156 L96.064,152.992 L101.248,152.992 L102.368,156 L105.16,156 L99.864,142.8 L97.456,142.8 L92.152,156 L94.944,156 Z M100.368,150.72 L96.952,150.72 L98.656,146.296 L100.368,150.72 Z M109.138667,156 L109.138667,147.12 L114.826667,156 L117.418667,156 L117.418667,142.8 L114.826667,142.8 L114.826667,151.68 L109.138667,142.8 L106.546667,142.8 L106.546667,156 L109.138667,156 Z M124.069334,156 C125.008,156 125.881334,155.833333 126.689334,155.5 C127.497334,155.166667 128.204,154.7 128.809334,154.1 C129.414667,153.5 129.885334,152.801333 130.221334,152.004 C130.557334,151.206667 130.725334,150.341333 130.725334,149.408 C130.725334,148.48 130.556,147.616 130.217334,146.816 C129.878667,146.016 129.406667,145.314667 128.801334,144.712 C128.196,144.109333 127.490667,143.64 126.685334,143.304 C125.88,142.968 125.008,142.8 124.069334,142.8 L124.069334,142.8 L120.445334,142.8 L120.445334,156 L124.069334,156 Z M123.781334,153.68 L123.037334,153.68 L123.037334,145.12 L123.781334,145.12 C124.378667,145.12 124.930667,145.226667 125.437334,145.44 C125.944,145.653333 126.384,145.953333 126.757334,146.34 C127.130667,146.726667 127.421334,147.18 127.629334,147.7 C127.837334,148.22 127.941334,148.786667 127.941334,149.4 C127.941334,150.018667 127.837334,150.588 127.629334,151.108 C127.421334,151.628 127.130667,152.08 126.757334,152.464 C126.384,152.848 125.944,153.146667 125.437334,153.36 C124.930667,153.573333 124.378667,153.68 123.781334,153.68 L123.781334,153.68 Z M133.912,156 L135.032,152.992 L140.216,152.992 L141.336,156 L144.128,156 L138.832,142.8 L136.424,142.8 L131.12,156 L133.912,156 Z M139.336,150.72 L135.92,150.72 L137.624,146.296 L139.336,150.72 Z M152.874667,156 L152.874667,153.728 L148.106667,153.728 L148.106667,142.8 L145.514667,142.8 L145.514667,156 L152.874667,156 Z M160.109334,156.256 C161.032001,156.256 161.896001,156.08 162.701334,155.728 C163.506667,155.376 164.213334,154.886667 164.821334,154.26 C165.429334,153.633333 165.905334,152.905333 166.249334,152.076 C166.593334,151.246667 166.765334,150.357333 166.765334,149.408 C166.765334,148.458667 166.593334,147.569333 166.249334,146.74 C165.905334,145.910667 165.429334,145.182667 164.821334,144.556 C164.213334,143.929333 163.506667,143.44 162.701334,143.088 C161.896001,142.736 161.032001,142.56 160.109334,142.56 C159.186667,142.56 158.322667,142.736 157.517334,143.088 C156.712001,143.44 156.005334,143.929333 155.397334,144.556 C154.789334,145.182667 154.313334,145.910667 153.969334,146.74 C153.625334,147.569333 153.453334,148.458667 153.453334,149.408 C153.453334,150.357333 153.625334,151.246667 153.969334,152.076 C154.313334,152.905333 154.789334,153.633333 155.397334,154.26 C156.005334,154.886667 156.712001,155.376 157.517334,155.728 C158.322667,156.08 159.186667,156.256 160.109334,156.256 Z M160.101334,153.76 C159.546667,153.76 159.033334,153.653333 158.561334,153.44 C158.089334,153.226667 157.680001,152.925333 157.333334,152.536 C156.986667,152.146667 156.718667,151.686667 156.529334,151.156 C156.340001,150.625333 156.245334,150.042667 156.245334,149.408 C156.245334,148.773333 156.340001,148.190667 156.529334,147.66 C156.718667,147.129333 156.986667,146.669333 157.333334,146.28 C157.680001,145.890667 158.089334,145.589333 158.561334,145.376 C159.033334,145.162667 159.546667,145.056 160.101334,145.056 C160.666667,145.056 161.184001,145.162667 161.653334,145.376 C162.122667,145.589333 162.530667,145.890667 162.877334,146.28 C163.224001,146.669333 163.493334,147.129333 163.685334,147.66 C163.877334,148.190667 163.973334,148.773333 163.973334,149.408 C163.973334,150.042667 163.877334,150.625333 163.685334,151.156 C163.493334,151.686667 163.224001,152.146667 162.877334,152.536 C162.530667,152.925333 162.122667,153.226667 161.653334,153.44 C161.184001,153.653333 160.666667,153.76 160.101334,153.76 Z" id="ANDALO" fill="#645B52" fill-rule="nonzero"></path>
                <line x1="130.691406" y1="389" x2="290.25" y2="85.6445312" id="Path-4" stroke="#FFFFFF" stroke-width="7" stroke-linecap="round"></line>
                <path d="M263.5,132.5 L173.165156,158.778444 C171.574249,159.24124 170.659734,160.906095 171.122529,162.497003 C171.225691,162.851631 171.393448,163.184162 171.617364,163.477871 L216.232967,222 L216.232967,222" id="Line" stroke="#FFFFFF" stroke-width="3" stroke-linecap="round"></path>
                <g id="Group-28" transform="translate(148.000000, 83.000000)">
                    <g id="Group-27-Copy-2">
                        <ellipse id="Oval" stroke="#979797" fill="#645B52" opacity="0.0983305432" filter="url(#filter-3)" cx="22.1389484" cy="59.0371958" rx="10.4545034" ry="4.30479553"></ellipse>
                        <path d="M22.1389484,59.6521666 C36.8982474,42.7946902 44.2778969,30.2902842 44.2778969,22.1389484 C44.2778969,9.91194484 34.365952,0 22.1389484,0 C9.91194484,0 0,9.91194484 0,22.1389484 C0,30.2902842 7.37964948,42.7946902 22.1389484,59.6521666 Z" id="Oval" fill="#F7A600"></path>
                    </g>
                    <circle id="Oval" fill="#FFFFFF" cx="22.0952381" cy="22.0952381" r="13.7142857"></circle>
                    <circle id="Oval" fill="#D37E0E" cx="22.0952381" cy="22.0952381" r="8.38095238"></circle>
                </g>
                <path d="M96.4425,377 L96.4425,375.154 L92.5685,375.154 L92.5685,366.275 L90.4625,366.275 L90.4625,377 L96.4425,377 Z M100.182167,377.208 C100.6415,377.208 101.068333,377.114833 101.462667,376.9285 C101.857,376.742167 102.205833,376.4735 102.509167,376.1225 L102.509167,376.1225 L102.509167,377 L104.504667,377 L104.504667,370.344 L102.509167,370.344 L102.509167,371.1565 C102.249167,370.835833 101.914417,370.585583 101.504917,370.40575 C101.095417,370.225917 100.6545,370.136 100.182167,370.136 C99.5408334,370.136 98.9720834,370.290917 98.4759168,370.60075 C97.9797501,370.910583 97.5908334,371.330917 97.3091668,371.86175 C97.0275001,372.392583 96.8866668,372.991667 96.8866668,373.659 C96.8866668,374.343667 97.0329168,374.953583 97.3254168,375.48875 C97.6179168,376.023917 98.0144168,376.44425 98.5149168,376.74975 C99.0154168,377.05525 99.5711668,377.208 100.182167,377.208 Z M100.773667,375.5115 C100.427,375.5115 100.119333,375.432417 99.8506668,375.27425 C99.5820001,375.116083 99.3707501,374.898333 99.2169168,374.621 C99.0630834,374.343667 98.9861668,374.027333 98.9861668,373.672 C98.9861668,373.316667 99.0641668,373.000333 99.2201668,372.723 C99.3761668,372.445667 99.5885001,372.227917 99.8571668,372.06975 C100.125833,371.911583 100.431333,371.8325 100.773667,371.8325 C101.120333,371.8325 101.426917,371.911583 101.693417,372.06975 C101.959917,372.227917 102.170083,372.444583 102.323917,372.71975 C102.47775,372.994917 102.554667,373.312333 102.554667,373.672 C102.554667,374.027333 102.478833,374.343667 102.327167,374.621 C102.1755,374.898333 101.965333,375.116083 101.696667,375.27425 C101.428,375.432417 101.120333,375.5115 100.773667,375.5115 Z M109.589834,380.575 C110.465167,380.575 111.191,380.42875 111.767334,380.13625 C112.343667,379.84375 112.77375,379.441833 113.057584,378.9305 C113.341417,378.419167 113.483334,377.836333 113.483334,377.182 L113.483334,377.182 L113.483334,370.344 L111.487834,370.344 L111.487834,371.1565 C111.2235,370.835833 110.892,370.585583 110.493334,370.40575 C110.094667,370.225917 109.661334,370.136 109.193334,370.136 C108.552,370.136 107.981084,370.290917 107.480584,370.60075 C106.980084,370.910583 106.58575,371.330917 106.297584,371.86175 C106.009417,372.392583 105.865334,372.996 105.865334,373.672 C105.865334,374.361 106.012667,374.972 106.307334,375.505 C106.602,376.038 106.997417,376.455083 107.493584,376.75625 C107.98975,377.057417 108.539,377.208 109.141334,377.208 C109.605,377.208 110.038334,377.112667 110.441334,376.922 C110.844334,376.731333 111.193167,376.464833 111.487834,376.1225 L111.487834,376.1225 L111.487834,377.0585 C111.487834,377.413833 111.407667,377.726917 111.247334,377.99775 C111.087,378.268583 110.863834,378.47875 110.577834,378.62825 C110.291834,378.77775 109.960334,378.8525 109.583334,378.8525 C109.167334,378.8525 108.781667,378.7615 108.426334,378.5795 C108.071,378.3975 107.802334,378.152667 107.620334,377.845 L107.620334,377.845 L105.995334,378.638 C106.272667,379.275 106.716834,379.757083 107.327834,380.08425 C107.938834,380.411417 108.692834,380.575 109.589834,380.575 Z M109.739334,375.5115 C109.397,375.5115 109.0915,375.432417 108.822834,375.27425 C108.554167,375.116083 108.344,374.899417 108.192334,374.62425 C108.040667,374.349083 107.964834,374.036 107.964834,373.685 C107.964834,373.329667 108.042834,373.01225 108.198834,372.73275 C108.354834,372.45325 108.567167,372.233333 108.835834,372.073 C109.1045,371.912667 109.41,371.8325 109.752334,371.8325 C110.094667,371.8325 110.400167,371.912667 110.668834,372.073 C110.9375,372.233333 111.14875,372.452167 111.302584,372.7295 C111.456417,373.006833 111.533334,373.325333 111.533334,373.685 C111.533334,374.036 111.4575,374.349083 111.305834,374.62425 C111.154167,374.899417 110.942917,375.116083 110.672084,375.27425 C110.40125,375.432417 110.090334,375.5115 109.739334,375.5115 Z M118.614,377.208 C119.350667,377.208 120.013667,377.057417 120.603,376.75625 C121.192334,376.455083 121.65925,376.039083 122.00375,375.50825 C122.34825,374.977417 122.5205,374.365333 122.5205,373.672 C122.5205,372.978667 122.34825,372.366583 122.00375,371.83575 C121.65925,371.304917 121.192334,370.888917 120.603,370.58775 C120.013667,370.286583 119.350667,370.136 118.614,370.136 C117.881667,370.136 117.21975,370.286583 116.62825,370.58775 C116.03675,370.888917 115.56875,371.304917 115.22425,371.83575 C114.87975,372.366583 114.7075,372.978667 114.7075,373.672 C114.7075,374.365333 114.880834,374.977417 115.2275,375.50825 C115.574167,376.039083 116.042167,376.455083 116.6315,376.75625 C117.220834,377.057417 117.881667,377.208 118.614,377.208 Z M118.6205,375.505 C118.278167,375.505 117.969417,375.427 117.69425,375.271 C117.419084,375.115 117.201334,374.899417 117.041,374.62425 C116.880667,374.349083 116.8005,374.031667 116.8005,373.672 C116.8005,373.312333 116.880667,372.994917 117.041,372.71975 C117.201334,372.444583 117.419084,372.229 117.69425,372.073 C117.969417,371.917 118.278167,371.839 118.6205,371.839 C118.9585,371.839 119.266167,371.917 119.5435,372.073 C119.820834,372.229 120.039667,372.444583 120.2,372.71975 C120.360334,372.994917 120.4405,373.312333 120.4405,373.672 C120.4405,374.031667 120.360334,374.349083 120.2,374.62425 C120.039667,374.899417 119.820834,375.115 119.5435,375.271 C119.266167,375.427 118.9585,375.505 118.6205,375.505 Z M129.616334,377.208 C130.080001,377.208 130.513334,377.112667 130.916334,376.922 C131.319334,376.731333 131.668167,376.464833 131.962834,376.1225 L131.962834,376.1225 L131.962834,377 L133.958334,377 L133.958334,365.82 L131.962834,365.82 L131.962834,371.1565 C131.698501,370.835833 131.367001,370.585583 130.968334,370.40575 C130.569667,370.225917 130.136334,370.136 129.668334,370.136 C129.022667,370.136 128.449584,370.290917 127.949084,370.60075 C127.448584,370.910583 127.055334,371.330917 126.769334,371.86175 C126.483334,372.392583 126.340334,372.996 126.340334,373.672 C126.340334,374.361 126.487667,374.972 126.782334,375.505 C127.077001,376.038 127.472417,376.455083 127.968584,376.75625 C128.464751,377.057417 129.014001,377.208 129.616334,377.208 Z M130.214334,375.5115 C129.872001,375.5115 129.566501,375.432417 129.297834,375.27425 C129.029167,375.116083 128.819001,374.899417 128.667334,374.62425 C128.515667,374.349083 128.439834,374.036 128.439834,373.685 C128.439834,373.329667 128.517834,373.01225 128.673834,372.73275 C128.829834,372.45325 129.041084,372.233333 129.307584,372.073 C129.574084,371.912667 129.878501,371.8325 130.220834,371.8325 C130.567501,371.8325 130.875167,371.912667 131.143834,372.073 C131.412501,372.233333 131.623751,372.452167 131.777584,372.7295 C131.931417,373.006833 132.008334,373.323167 132.008334,373.6785 C132.008334,374.0295 131.931417,374.343667 131.777584,374.621 C131.623751,374.898333 131.412501,375.116083 131.143834,375.27425 C130.875167,375.432417 130.565334,375.5115 130.214334,375.5115 Z M136.833501,368.9595 C137.050167,368.9595 137.247334,368.906417 137.425001,368.80025 C137.602667,368.694083 137.744584,368.55 137.850751,368.368 C137.956917,368.186 138.010001,367.986667 138.010001,367.77 C138.010001,367.553333 137.956917,367.356167 137.850751,367.1785 C137.744584,367.000833 137.602667,366.858917 137.425001,366.75275 C137.247334,366.646583 137.050167,366.5935 136.833501,366.5935 C136.616834,366.5935 136.418584,366.646583 136.238751,366.75275 C136.058917,366.858917 135.914834,367.000833 135.806501,367.1785 C135.698167,367.356167 135.644001,367.553333 135.644001,367.77 C135.644001,367.986667 135.698167,368.186 135.806501,368.368 C135.914834,368.55 136.058917,368.694083 136.238751,368.80025 C136.418584,368.906417 136.616834,368.9595 136.833501,368.9595 Z M137.828001,377 L137.828001,370.344 L135.832501,370.344 L135.832501,377 L137.828001,377 Z M147.523834,377.208 C148.156501,377.208 148.767501,377.10075 149.356834,376.88625 C149.946168,376.67175 150.474834,376.368417 150.942834,375.97625 C151.410834,375.584083 151.780251,375.11825 152.051084,374.57875 C152.321918,374.03925 152.457334,373.442333 152.457334,372.788 L152.457334,372.788 L152.457334,371.163 L147.497834,371.163 L147.497834,372.7945 L150.312334,372.7945 L150.312334,372.957 C150.312334,373.290667 150.238668,373.598333 150.091334,373.88 C149.944001,374.161667 149.744668,374.4065 149.493334,374.6145 C149.242001,374.8225 148.954918,374.983917 148.632084,375.09875 C148.309251,375.213583 147.974501,375.271 147.627834,375.271 C147.194501,375.271 146.790418,375.182167 146.415584,375.0045 C146.040751,374.826833 145.713584,374.573333 145.434084,374.244 C145.154584,373.914667 144.936834,373.5225 144.780834,373.0675 C144.624834,372.6125 144.546834,372.1055 144.546834,371.5465 C144.546834,371.035167 144.616168,370.56175 144.754834,370.12625 C144.893501,369.69075 145.097168,369.3105 145.365834,368.9855 C145.634501,368.6605 145.964918,368.408083 146.357084,368.22825 C146.749251,368.048417 147.201001,367.9585 147.712334,367.9585 C148.232334,367.9585 148.759918,368.054917 149.295084,368.24775 C149.830251,368.440583 150.286334,368.7125 150.663334,369.0635 L150.663334,369.0635 L151.651334,367.432 C151.300334,367.141667 150.906001,366.89575 150.468334,366.69425 C150.030668,366.49275 149.574584,366.34 149.100084,366.236 C148.625584,366.132 148.154334,366.08 147.686334,366.08 C146.858668,366.08 146.111168,366.22625 145.443834,366.51875 C144.776501,366.81125 144.206668,367.21425 143.734334,367.72775 C143.262001,368.24125 142.900168,368.83275 142.648834,369.50225 C142.397501,370.17175 142.271834,370.8835 142.271834,371.6375 C142.271834,372.426167 142.406168,373.1585 142.674834,373.8345 C142.943501,374.5105 143.316168,375.100917 143.792834,375.60575 C144.269501,376.110583 144.826334,376.503833 145.463334,376.7855 C146.100334,377.067167 146.787168,377.208 147.523834,377.208 Z M156.606501,377.208 C157.065834,377.208 157.492668,377.114833 157.887001,376.9285 C158.281334,376.742167 158.630168,376.4735 158.933501,376.1225 L158.933501,376.1225 L158.933501,377 L160.929001,377 L160.929001,370.344 L158.933501,370.344 L158.933501,371.1565 C158.673501,370.835833 158.338751,370.585583 157.929251,370.40575 C157.519751,370.225917 157.078834,370.136 156.606501,370.136 C155.965168,370.136 155.396418,370.290917 154.900251,370.60075 C154.404084,370.910583 154.015168,371.330917 153.733501,371.86175 C153.451834,372.392583 153.311001,372.991667 153.311001,373.659 C153.311001,374.343667 153.457251,374.953583 153.749751,375.48875 C154.042251,376.023917 154.438751,376.44425 154.939251,376.74975 C155.439751,377.05525 155.995501,377.208 156.606501,377.208 Z M157.198001,375.5115 C156.851334,375.5115 156.543668,375.432417 156.275001,375.27425 C156.006334,375.116083 155.795084,374.898333 155.641251,374.621 C155.487418,374.343667 155.410501,374.027333 155.410501,373.672 C155.410501,373.316667 155.488501,373.000333 155.644501,372.723 C155.800501,372.445667 156.012834,372.227917 156.281501,372.06975 C156.550168,371.911583 156.855668,371.8325 157.198001,371.8325 C157.544668,371.8325 157.851251,371.911583 158.117751,372.06975 C158.384251,372.227917 158.594418,372.444583 158.748251,372.71975 C158.902084,372.994917 158.979001,373.312333 158.979001,373.672 C158.979001,374.027333 158.903168,374.343667 158.751501,374.621 C158.599834,374.898333 158.389668,375.116083 158.121001,375.27425 C157.852334,375.432417 157.544668,375.5115 157.198001,375.5115 Z M164.805168,377 L164.805168,373.282 C164.805168,373.035 164.876668,372.80425 165.019668,372.58975 C165.162668,372.37525 165.351168,372.200833 165.585168,372.0665 C165.819168,371.932167 166.066168,371.865 166.326168,371.865 C166.495168,371.865 166.678251,371.89425 166.875418,371.95275 C167.072584,372.01125 167.244834,372.090333 167.392168,372.19 L167.392168,372.19 L168.224168,370.5065 C168.055168,370.398167 167.845001,370.309333 167.593668,370.24 C167.342334,370.170667 167.099668,370.136 166.865668,370.136 C166.454001,370.136 166.069418,370.23675 165.711918,370.43825 C165.354418,370.63975 165.052168,370.926833 164.805168,371.2995 L164.805168,371.2995 L164.805168,370.344 L162.809668,370.344 L162.809668,377 L164.805168,377 Z M171.619335,377.208 C172.083001,377.208 172.516335,377.112667 172.919335,376.922 C173.322335,376.731333 173.671168,376.464833 173.965835,376.1225 L173.965835,376.1225 L173.965835,377 L175.961335,377 L175.961335,365.82 L173.965835,365.82 L173.965835,371.1565 C173.701501,370.835833 173.370001,370.585583 172.971335,370.40575 C172.572668,370.225917 172.139335,370.136 171.671335,370.136 C171.025668,370.136 170.452585,370.290917 169.952085,370.60075 C169.451585,370.910583 169.058335,371.330917 168.772335,371.86175 C168.486335,372.392583 168.343335,372.996 168.343335,373.672 C168.343335,374.361 168.490668,374.972 168.785335,375.505 C169.080001,376.038 169.475418,376.455083 169.971585,376.75625 C170.467751,377.057417 171.017001,377.208 171.619335,377.208 Z M172.217335,375.5115 C171.875001,375.5115 171.569501,375.432417 171.300835,375.27425 C171.032168,375.116083 170.822001,374.899417 170.670335,374.62425 C170.518668,374.349083 170.442835,374.036 170.442835,373.685 C170.442835,373.329667 170.520835,373.01225 170.676835,372.73275 C170.832835,372.45325 171.044085,372.233333 171.310585,372.073 C171.577085,371.912667 171.881501,371.8325 172.223835,371.8325 C172.570501,371.8325 172.878168,371.912667 173.146835,372.073 C173.415501,372.233333 173.626751,372.452167 173.780585,372.7295 C173.934418,373.006833 174.011335,373.323167 174.011335,373.6785 C174.011335,374.0295 173.934418,374.343667 173.780585,374.621 C173.626751,374.898333 173.415501,375.116083 173.146835,375.27425 C172.878168,375.432417 172.568335,375.5115 172.217335,375.5115 Z M180.617501,377.208 C181.076835,377.208 181.503668,377.114833 181.898001,376.9285 C182.292335,376.742167 182.641168,376.4735 182.944501,376.1225 L182.944501,376.1225 L182.944501,377 L184.940001,377 L184.940001,370.344 L182.944501,370.344 L182.944501,371.1565 C182.684501,370.835833 182.349751,370.585583 181.940251,370.40575 C181.530751,370.225917 181.089835,370.136 180.617501,370.136 C179.976168,370.136 179.407418,370.290917 178.911251,370.60075 C178.415085,370.910583 178.026168,371.330917 177.744501,371.86175 C177.462835,372.392583 177.322001,372.991667 177.322001,373.659 C177.322001,374.343667 177.468251,374.953583 177.760751,375.48875 C178.053251,376.023917 178.449751,376.44425 178.950251,376.74975 C179.450751,377.05525 180.006501,377.208 180.617501,377.208 Z M181.209001,375.5115 C180.862335,375.5115 180.554668,375.432417 180.286001,375.27425 C180.017335,375.116083 179.806085,374.898333 179.652251,374.621 C179.498418,374.343667 179.421501,374.027333 179.421501,373.672 C179.421501,373.316667 179.499501,373.000333 179.655501,372.723 C179.811501,372.445667 180.023835,372.227917 180.292501,372.06975 C180.561168,371.911583 180.866668,371.8325 181.209001,371.8325 C181.555668,371.8325 181.862251,371.911583 182.128751,372.06975 C182.395251,372.227917 182.605418,372.444583 182.759251,372.71975 C182.913085,372.994917 182.990001,373.312333 182.990001,373.672 C182.990001,374.027333 182.914168,374.343667 182.762501,374.621 C182.610835,374.898333 182.400668,375.116083 182.132001,375.27425 C181.863335,375.432417 181.555668,375.5115 181.209001,375.5115 Z" id="LagodiGarda" fill="#645B52" fill-rule="nonzero"></path>
                <path d="M85.171,187 L85.171,186.0155 L81.5245,186.0155 L81.5245,177.925 L80.408,177.925 L80.408,187 L85.171,187 Z M88.7808334,187.176 C89.2465001,187.176 89.6718334,187.067833 90.0568334,186.8515 C90.4418334,186.635167 90.7571668,186.332667 91.0028334,185.944 L91.0028334,185.944 L91.0028334,187 L92.0698334,187 L92.0698334,181.368 L91.0028334,181.368 L91.0028334,182.3965 C90.7865001,182.018833 90.4812501,181.723667 90.0870834,181.511 C89.6929168,181.298333 89.2575001,181.192 88.7808334,181.192 C88.2418334,181.192 87.7615001,181.322167 87.3398334,181.5825 C86.9181668,181.842833 86.5863334,182.197583 86.3443334,182.64675 C86.1023334,183.095917 85.9813334,183.6065 85.9813334,184.1785 C85.9813334,184.757833 86.1050834,185.273 86.3525834,185.724 C86.6000834,186.175 86.9355834,186.52975 87.3590834,186.78825 C87.7825834,187.04675 88.2565001,187.176 88.7808334,187.176 Z M89.0668334,186.2575 C88.6855001,186.2575 88.3463334,186.168583 88.0493334,185.99075 C87.7523334,185.812917 87.5185834,185.56725 87.3480834,185.25375 C87.1775834,184.94025 87.0923334,184.583667 87.0923334,184.184 C87.0923334,183.780667 87.1775834,183.423167 87.3480834,183.1115 C87.5185834,182.799833 87.7523334,182.555083 88.0493334,182.37725 C88.3463334,182.199417 88.6855001,182.1105 89.0668334,182.1105 C89.4518334,182.1105 89.7919168,182.199417 90.0870834,182.37725 C90.3822501,182.555083 90.6141668,182.799833 90.7828334,183.1115 C90.9515001,183.423167 91.0358334,183.780667 91.0358334,184.184 C91.0358334,184.587333 90.9515001,184.944833 90.7828334,185.2565 C90.6141668,185.568167 90.3822501,185.812917 90.0870834,185.99075 C89.7919168,186.168583 89.4518334,186.2575 89.0668334,186.2575 Z M96.4826669,190.025 C97.1463335,190.025 97.7110002,189.911333 98.1766669,189.684 C98.6423335,189.456667 98.9970835,189.1285 99.2409168,188.6995 C99.4847502,188.2705 99.6066668,187.755333 99.6066668,187.154 L99.6066668,187.154 L99.6066668,181.368 L98.5396669,181.368 L98.5396669,182.3965 C98.3160002,182.018833 98.0098335,181.723667 97.6211669,181.511 C97.2325002,181.298333 96.8035002,181.192 96.3341669,181.192 C95.7951669,181.192 95.3139168,181.322167 94.8904169,181.5825 C94.4669169,181.842833 94.1323335,182.197583 93.8866668,182.64675 C93.6410002,183.095917 93.5181669,183.608333 93.5181669,184.184 C93.5181669,184.763333 93.6428335,185.2785 93.8921668,185.7295 C94.1415002,186.1805 94.4770002,186.534333 94.8986668,186.791 C95.3203335,187.047667 95.7915002,187.176 96.3121668,187.176 C96.7815002,187.176 97.2105002,187.066917 97.5991669,186.84875 C97.9878335,186.630583 98.3013335,186.329 98.5396669,185.944 L98.5396669,185.944 L98.5396669,187.1485 C98.5396669,187.5555 98.4507502,187.905667 98.2729169,188.199 C98.0950835,188.492333 97.8512502,188.717833 97.5414169,188.8755 C97.2315835,189.033167 96.8786669,189.112 96.4826669,189.112 C96.0206668,189.112 95.6045002,189.008417 95.2341669,188.80125 C94.8638335,188.594083 94.5943335,188.316333 94.4256668,187.968 L94.4256668,187.968 L93.5401669,188.386 C93.7785002,188.921333 94.1470002,189.328333 94.6456668,189.607 C95.1443335,189.885667 95.7566669,190.025 96.4826669,190.025 Z M96.5981668,186.2575 C96.2168335,186.2575 95.8776668,186.168583 95.5806669,185.99075 C95.2836669,185.812917 95.0508335,185.568167 94.8821669,185.2565 C94.7135002,184.944833 94.6291669,184.589167 94.6291669,184.1895 C94.6291669,183.786167 94.7144169,183.42775 94.8849168,183.11425 C95.0554169,182.80075 95.2891669,182.555083 95.5861668,182.37725 C95.8831668,182.199417 96.2223335,182.1105 96.6036668,182.1105 C96.9850002,182.1105 97.3241668,182.199417 97.6211669,182.37725 C97.9181669,182.555083 98.1519169,182.80075 98.3224168,183.11425 C98.4929169,183.42775 98.5781669,183.786167 98.5781669,184.1895 C98.5781669,184.589167 98.4938335,184.944833 98.3251669,185.2565 C98.1565002,185.568167 97.9227502,185.812917 97.6239169,185.99075 C97.3250835,186.168583 96.9831669,186.2575 96.5981668,186.2575 Z M104.135,187.176 C104.732667,187.176 105.27075,187.0495 105.74925,186.7965 C106.22775,186.5435 106.60725,186.1915 106.88775,185.7405 C107.16825,185.2895 107.3085,184.770667 107.3085,184.184 C107.3085,183.593667 107.16825,183.073917 106.88775,182.62475 C106.60725,182.175583 106.22775,181.8245 105.74925,181.5715 C105.27075,181.3185 104.732667,181.192 104.135,181.192 C103.537334,181.192 102.99925,181.3185 102.52075,181.5715 C102.04225,181.8245 101.66275,182.175583 101.38225,182.62475 C101.10175,183.073917 100.9615,183.593667 100.9615,184.184 C100.9615,184.770667 101.10175,185.2895 101.38225,185.7405 C101.66275,186.1915 102.04225,186.5435 102.52075,186.7965 C102.99925,187.0495 103.537334,187.176 104.135,187.176 Z M104.1405,186.2465 C103.7445,186.2465 103.390667,186.1585 103.079,185.9825 C102.767334,185.8065 102.521667,185.562667 102.342,185.251 C102.162334,184.939333 102.0725,184.583667 102.0725,184.184 C102.0725,183.780667 102.162334,183.424083 102.342,183.11425 C102.521667,182.804417 102.767334,182.5615 103.079,182.3855 C103.390667,182.2095 103.7445,182.1215 104.1405,182.1215 C104.532834,182.1215 104.884834,182.2095 105.1965,182.3855 C105.508167,182.5615 105.753834,182.804417 105.9335,183.11425 C106.113167,183.424083 106.203,183.780667 106.203,184.184 C106.203,184.583667 106.113167,184.939333 105.9335,185.251 C105.753834,185.562667 105.508167,185.8065 105.1965,185.9825 C104.884834,186.1585 104.532834,186.2465 104.1405,186.2465 Z M113.576667,187.176 C114.042334,187.176 114.4695,187.066917 114.858167,186.84875 C115.246834,186.630583 115.562167,186.329 115.804167,185.944 L115.804167,185.944 L115.804167,187 L116.871167,187 L116.871167,177.5345 L115.804167,177.5345 L115.804167,182.3965 C115.576834,182.018833 115.26975,181.723667 114.882917,181.511 C114.496084,181.298333 114.068,181.192 113.598667,181.192 C113.056,181.192 112.572917,181.322167 112.149417,181.5825 C111.725917,181.842833 111.39225,182.197583 111.148417,182.64675 C110.904584,183.095917 110.782667,183.608333 110.782667,184.184 C110.782667,184.763333 110.906417,185.2785 111.153917,185.7295 C111.401417,186.1805 111.736917,186.534333 112.160417,186.791 C112.583917,187.047667 113.056,187.176 113.576667,187.176 Z M113.862667,186.2575 C113.481334,186.2575 113.142167,186.168583 112.845167,185.99075 C112.548167,185.812917 112.315334,185.568167 112.146667,185.2565 C111.978,184.944833 111.893667,184.589167 111.893667,184.1895 C111.893667,183.786167 111.978917,183.42775 112.149417,183.11425 C112.319917,182.80075 112.553667,182.555083 112.850667,182.37725 C113.147667,182.199417 113.486834,182.1105 113.868167,182.1105 C114.2495,182.1105 114.588667,182.199417 114.885667,182.37725 C115.182667,182.555083 115.4155,182.80075 115.584167,183.11425 C115.752834,183.42775 115.837167,183.786167 115.837167,184.1895 C115.837167,184.589167 115.752834,184.944833 115.584167,185.2565 C115.4155,185.568167 115.182667,185.812917 114.885667,185.99075 C114.588667,186.168583 114.247667,186.2575 113.862667,186.2575 Z M119.260001,180.2295 C119.384667,180.2295 119.496501,180.19925 119.595501,180.13875 C119.694501,180.07825 119.774251,179.996667 119.834751,179.894 C119.895251,179.791333 119.925501,179.677667 119.925501,179.553 C119.925501,179.432 119.895251,179.322 119.834751,179.223 C119.774251,179.124 119.694501,179.04425 119.595501,178.98375 C119.496501,178.92325 119.384667,178.893 119.260001,178.893 C119.139001,178.893 119.028084,178.92325 118.927251,178.98375 C118.826417,179.04425 118.745751,179.124 118.685251,179.223 C118.624751,179.322 118.594501,179.433833 118.594501,179.5585 C118.594501,179.6795 118.624751,179.791333 118.685251,179.894 C118.745751,179.996667 118.826417,180.07825 118.927251,180.13875 C119.028084,180.19925 119.139001,180.2295 119.260001,180.2295 Z M119.793501,187 L119.793501,181.368 L118.726501,181.368 L118.726501,187 L119.793501,187 Z M125.038667,187 L125.913167,179.971 L128.349667,186.5435 L129.097667,186.5435 L131.534167,179.971 L132.408667,187 L133.525167,187 L132.430667,177.925 L131.242667,177.925 L128.723667,184.602 L126.204667,177.925 L125.016667,177.925 L123.922167,187 L125.038667,187 Z M137.899501,187.176 C138.497167,187.176 139.035251,187.0495 139.513751,186.7965 C139.992251,186.5435 140.371751,186.1915 140.652251,185.7405 C140.932751,185.2895 141.073001,184.770667 141.073001,184.184 C141.073001,183.593667 140.932751,183.073917 140.652251,182.62475 C140.371751,182.175583 139.992251,181.8245 139.513751,181.5715 C139.035251,181.3185 138.497167,181.192 137.899501,181.192 C137.301834,181.192 136.763751,181.3185 136.285251,181.5715 C135.806751,181.8245 135.427251,182.175583 135.146751,182.62475 C134.866251,183.073917 134.726001,183.593667 134.726001,184.184 C134.726001,184.770667 134.866251,185.2895 135.146751,185.7405 C135.427251,186.1915 135.806751,186.5435 136.285251,186.7965 C136.763751,187.0495 137.301834,187.176 137.899501,187.176 Z M137.905001,186.2465 C137.509001,186.2465 137.155167,186.1585 136.843501,185.9825 C136.531834,185.8065 136.286167,185.562667 136.106501,185.251 C135.926834,184.939333 135.837001,184.583667 135.837001,184.184 C135.837001,183.780667 135.926834,183.424083 136.106501,183.11425 C136.286167,182.804417 136.531834,182.5615 136.843501,182.3855 C137.155167,182.2095 137.509001,182.1215 137.905001,182.1215 C138.297334,182.1215 138.649334,182.2095 138.961001,182.3855 C139.272667,182.5615 139.518334,182.804417 139.698001,183.11425 C139.877667,183.424083 139.967501,183.780667 139.967501,184.184 C139.967501,184.583667 139.877667,184.939333 139.698001,185.251 C139.518334,185.562667 139.272667,185.8065 138.961001,185.9825 C138.649334,186.1585 138.297334,186.2465 137.905001,186.2465 Z M143.533334,187 L143.533334,177.54 L142.466334,177.54 L142.466334,187 L143.533334,187 Z M147.935168,187 L150.740168,181.368 L149.486168,181.368 L147.583168,185.5315 L145.680168,181.368 L144.426168,181.368 L147.225668,187 L147.935168,187 Z M154.317001,187.176 C154.889001,187.176 155.408751,187.053167 155.876251,186.8075 C156.343751,186.561833 156.711334,186.217167 156.979001,185.7735 L156.979001,185.7735 L156.198001,185.3665 C155.974334,185.678167 155.710334,185.912833 155.406001,186.0705 C155.101668,186.228167 154.757001,186.307 154.372001,186.307 C153.965001,186.307 153.604751,186.22175 153.291251,186.05125 C152.977751,185.88075 152.732084,185.645167 152.554251,185.3445 C152.376418,185.043833 152.287501,184.697333 152.287501,184.305 L152.287501,184.305 L157.127501,184.305 C157.138501,184.257333 157.145834,184.218833 157.149501,184.1895 C157.153168,184.160167 157.155001,184.121667 157.155001,184.074 C157.155001,183.502 157.031251,182.999667 156.783751,182.567 C156.536251,182.134333 156.191584,181.797 155.749751,181.555 C155.307918,181.313 154.793668,181.192 154.207001,181.192 C153.792668,181.192 153.404001,181.269 153.041001,181.423 C152.678001,181.577 152.359001,181.792417 152.084001,182.06925 C151.809001,182.346083 151.594501,182.666 151.440501,183.029 C151.286501,183.392 151.209501,183.7825 151.209501,184.2005 C151.209501,184.765167 151.345168,185.272083 151.616501,185.72125 C151.887834,186.170417 152.258168,186.525167 152.727501,186.7855 C153.196834,187.045833 153.726668,187.176 154.317001,187.176 Z M156.082501,183.5185 L152.342501,183.5185 C152.393834,183.2215 152.504751,182.963917 152.675251,182.74575 C152.845751,182.527583 153.063918,182.358917 153.329751,182.23975 C153.595584,182.120583 153.893501,182.061 154.223501,182.061 C154.538834,182.061 154.827584,182.122417 155.089751,182.24525 C155.351918,182.368083 155.570084,182.538583 155.744251,182.75675 C155.918418,182.974917 156.031168,183.228833 156.082501,183.5185 L156.082501,183.5185 Z M159.582335,187 L159.582335,183.4305 C159.582335,183.181167 159.642835,182.951083 159.763835,182.74025 C159.884835,182.529417 160.058085,182.36075 160.283585,182.23425 C160.509085,182.10775 160.779501,182.0445 161.094835,182.0445 C161.553168,182.0445 161.908835,182.185667 162.161835,182.468 C162.414835,182.750333 162.541335,183.1555 162.541335,183.6835 L162.541335,183.6835 L162.541335,187 L163.608335,187 L163.608335,183.469 C163.608335,182.996 163.521251,182.589 163.347085,182.248 C163.172918,181.907 162.926335,181.64575 162.607335,181.46425 C162.288335,181.28275 161.910668,181.192 161.474335,181.192 C161.030668,181.192 160.647501,181.278167 160.324835,181.4505 C160.002168,181.622833 159.754668,181.837333 159.582335,182.094 L159.582335,182.094 L159.582335,181.368 L158.515335,181.368 L158.515335,187 L159.582335,187 Z M168.087168,187.176 C168.684835,187.176 169.222918,187.0495 169.701418,186.7965 C170.179918,186.5435 170.559418,186.1915 170.839918,185.7405 C171.120418,185.2895 171.260668,184.770667 171.260668,184.184 C171.260668,183.593667 171.120418,183.073917 170.839918,182.62475 C170.559418,182.175583 170.179918,181.8245 169.701418,181.5715 C169.222918,181.3185 168.684835,181.192 168.087168,181.192 C167.489501,181.192 166.951418,181.3185 166.472918,181.5715 C165.994418,181.8245 165.614918,182.175583 165.334418,182.62475 C165.053918,183.073917 164.913668,183.593667 164.913668,184.184 C164.913668,184.770667 165.053918,185.2895 165.334418,185.7405 C165.614918,186.1915 165.994418,186.5435 166.472918,186.7965 C166.951418,187.0495 167.489501,187.176 168.087168,187.176 Z M168.092668,186.2465 C167.696668,186.2465 167.342835,186.1585 167.031168,185.9825 C166.719501,185.8065 166.473835,185.562667 166.294168,185.251 C166.114501,184.939333 166.024668,184.583667 166.024668,184.184 C166.024668,183.780667 166.114501,183.424083 166.294168,183.11425 C166.473835,182.804417 166.719501,182.5615 167.031168,182.3855 C167.342835,182.2095 167.696668,182.1215 168.092668,182.1215 C168.485001,182.1215 168.837001,182.2095 169.148668,182.3855 C169.460335,182.5615 169.706001,182.804417 169.885668,183.11425 C170.065335,183.424083 170.155168,183.780667 170.155168,184.184 C170.155168,184.583667 170.065335,184.939333 169.885668,185.251 C169.706001,185.562667 169.460335,185.8065 169.148668,185.9825 C168.837001,186.1585 168.485001,186.2465 168.092668,186.2465 Z" id="LagodiMolveno" fill="#645B52" fill-rule="nonzero"></path>
                <path d="M252.758,124 C253.468667,124 254.084,123.87975 254.604,123.63925 C255.124,123.39875 255.524833,123.053167 255.8065,122.6025 C256.088167,122.151833 256.229,121.6145 256.229,120.9905 C256.229,120.2495 256.028583,119.650417 255.62775,119.19325 C255.226917,118.736083 254.651667,118.449 253.902,118.332 C254.820667,117.872667 255.28,117.086167 255.28,115.9725 C255.28,115.0755 254.9875,114.401667 254.4025,113.951 C253.8175,113.500333 253.009333,113.275 251.978,113.275 L251.978,113.275 L248.9035,113.275 L248.9035,124 L252.758,124 Z M251.4905,117.617 L251.003,117.617 L251.003,114.9065 L251.4905,114.9065 C252.0755,114.9065 252.515333,115.018083 252.81,115.24125 C253.104667,115.464417 253.252,115.799167 253.252,116.2455 C253.252,116.6875 253.100333,117.026583 252.797,117.26275 C252.493667,117.498917 252.058167,117.617 251.4905,117.617 L251.4905,117.617 Z M252.043,122.362 L251.003,122.362 L251.003,119.4305 L252.043,119.4305 C252.684333,119.4305 253.175083,119.559417 253.51525,119.81725 C253.855417,120.075083 254.0255,120.4445 254.0255,120.9255 C254.0255,121.397833 253.85975,121.755333 253.52825,121.998 C253.19675,122.240667 252.701667,122.362 252.043,122.362 L252.043,122.362 Z M260.631667,124.208 C261.368333,124.208 262.031333,124.057417 262.620667,123.75625 C263.21,123.455083 263.676917,123.039083 264.021417,122.50825 C264.365917,121.977417 264.538167,121.365333 264.538167,120.672 C264.538167,119.978667 264.365917,119.366583 264.021417,118.83575 C263.676917,118.304917 263.21,117.888917 262.620667,117.58775 C262.031333,117.286583 261.368333,117.136 260.631667,117.136 C259.899333,117.136 259.237417,117.286583 258.645917,117.58775 C258.054417,117.888917 257.586417,118.304917 257.241917,118.83575 C256.897417,119.366583 256.725167,119.978667 256.725167,120.672 C256.725167,121.365333 256.8985,121.977417 257.245167,122.50825 C257.591833,123.039083 258.059833,123.455083 258.649167,123.75625 C259.2385,124.057417 259.899333,124.208 260.631667,124.208 Z M260.638167,122.505 C260.295833,122.505 259.987083,122.427 259.711917,122.271 C259.43675,122.115 259.219,121.899417 259.058667,121.62425 C258.898333,121.349083 258.818167,121.031667 258.818167,120.672 C258.818167,120.312333 258.898333,119.994917 259.058667,119.71975 C259.219,119.444583 259.43675,119.229 259.711917,119.073 C259.987083,118.917 260.295833,118.839 260.638167,118.839 C260.976167,118.839 261.283833,118.917 261.561167,119.073 C261.8385,119.229 262.057333,119.444583 262.217667,119.71975 C262.378,119.994917 262.458167,120.312333 262.458167,120.672 C262.458167,121.031667 262.378,121.349083 262.217667,121.62425 C262.057333,121.899417 261.8385,122.115 261.561167,122.271 C261.283833,122.427 260.976167,122.505 260.638167,122.505 Z M267.809834,124 L267.809834,112.82 L265.814334,112.82 L265.814334,124 L267.809834,124 Z M275.599,124 L275.599,122.479 L272.1475,122.479 L275.8265,117.344 L269.3265,117.344 L269.3265,118.865 L272.466,118.865 L268.787,124 L275.599,124 Z M279.715667,124.208 C280.175,124.208 280.601834,124.114833 280.996167,123.9285 C281.3905,123.742167 281.739334,123.4735 282.042667,123.1225 L282.042667,123.1225 L282.042667,124 L284.038167,124 L284.038167,117.344 L282.042667,117.344 L282.042667,118.1565 C281.782667,117.835833 281.447917,117.585583 281.038417,117.40575 C280.628917,117.225917 280.188,117.136 279.715667,117.136 C279.074334,117.136 278.505584,117.290917 278.009417,117.60075 C277.51325,117.910583 277.124334,118.330917 276.842667,118.86175 C276.561,119.392583 276.420167,119.991667 276.420167,120.659 C276.420167,121.343667 276.566417,121.953583 276.858917,122.48875 C277.151417,123.023917 277.547917,123.44425 278.048417,123.74975 C278.548917,124.05525 279.104667,124.208 279.715667,124.208 Z M280.307167,122.5115 C279.9605,122.5115 279.652834,122.432417 279.384167,122.27425 C279.1155,122.116083 278.90425,121.898333 278.750417,121.621 C278.596584,121.343667 278.519667,121.027333 278.519667,120.672 C278.519667,120.316667 278.597667,120.000333 278.753667,119.723 C278.909667,119.445667 279.122,119.227917 279.390667,119.06975 C279.659334,118.911583 279.964834,118.8325 280.307167,118.8325 C280.653834,118.8325 280.960417,118.911583 281.226917,119.06975 C281.493417,119.227917 281.703584,119.444583 281.857417,119.71975 C282.01125,119.994917 282.088167,120.312333 282.088167,120.672 C282.088167,121.027333 282.012334,121.343667 281.860667,121.621 C281.709,121.898333 281.498834,122.116083 281.230167,122.27425 C280.9615,122.432417 280.653834,122.5115 280.307167,122.5115 Z M287.914334,124 L287.914334,120.061 C287.914334,119.801 287.971751,119.568083 288.086584,119.36225 C288.201417,119.156417 288.366084,118.993917 288.580584,118.87475 C288.795084,118.755583 289.049667,118.696 289.344334,118.696 C289.777667,118.696 290.118917,118.82925 290.368084,119.09575 C290.617251,119.36225 290.741834,119.733833 290.741834,120.2105 L290.741834,120.2105 L290.741834,124 L292.737334,124 L292.737334,119.788 C292.737334,119.259333 292.626834,118.79675 292.405834,118.40025 C292.184834,118.00375 291.880417,117.693917 291.492584,117.47075 C291.104751,117.247583 290.655167,117.136 290.143834,117.136 C289.680167,117.136 289.256584,117.222667 288.873084,117.396 C288.489584,117.569333 288.170001,117.799 287.914334,118.085 L287.914334,118.085 L287.914334,117.344 L285.918834,117.344 L285.918834,124 L287.914334,124 Z M297.803001,124.208 C298.539667,124.208 299.202667,124.057417 299.792001,123.75625 C300.381334,123.455083 300.848251,123.039083 301.192751,122.50825 C301.537251,121.977417 301.709501,121.365333 301.709501,120.672 C301.709501,119.978667 301.537251,119.366583 301.192751,118.83575 C300.848251,118.304917 300.381334,117.888917 299.792001,117.58775 C299.202667,117.286583 298.539667,117.136 297.803001,117.136 C297.070667,117.136 296.408751,117.286583 295.817251,117.58775 C295.225751,117.888917 294.757751,118.304917 294.413251,118.83575 C294.068751,119.366583 293.896501,119.978667 293.896501,120.672 C293.896501,121.365333 294.069834,121.977417 294.416501,122.50825 C294.763167,123.039083 295.231167,123.455083 295.820501,123.75625 C296.409834,124.057417 297.070667,124.208 297.803001,124.208 Z M297.809501,122.505 C297.467167,122.505 297.158417,122.427 296.883251,122.271 C296.608084,122.115 296.390334,121.899417 296.230001,121.62425 C296.069667,121.349083 295.989501,121.031667 295.989501,120.672 C295.989501,120.312333 296.069667,119.994917 296.230001,119.71975 C296.390334,119.444583 296.608084,119.229 296.883251,119.073 C297.158417,118.917 297.467167,118.839 297.809501,118.839 C298.147501,118.839 298.455167,118.917 298.732501,119.073 C299.009834,119.229 299.228667,119.444583 299.389001,119.71975 C299.549334,119.994917 299.629501,120.312333 299.629501,120.672 C299.629501,121.031667 299.549334,121.349083 299.389001,121.62425 C299.228667,121.899417 299.009834,122.115 298.732501,122.271 C298.455167,122.427 298.147501,122.505 297.809501,122.505 Z" id="Bolzano" fill="#645B52" fill-rule="nonzero"></path>
                <path d="M280.758,86 C281.468667,86 282.084,85.87975 282.604,85.63925 C283.124,85.39875 283.524833,85.0531667 283.8065,84.6025 C284.088167,84.1518333 284.229,83.6145 284.229,82.9905 C284.229,82.2495 284.028583,81.6504167 283.62775,81.19325 C283.226917,80.7360833 282.651667,80.449 281.902,80.332 C282.820667,79.8726667 283.28,79.0861667 283.28,77.9725 C283.28,77.0755 282.9875,76.4016667 282.4025,75.951 C281.8175,75.5003333 281.009333,75.275 279.978,75.275 L279.978,75.275 L276.9035,75.275 L276.9035,86 L280.758,86 Z M279.4905,79.617 L279.003,79.617 L279.003,76.9065 L279.4905,76.9065 C280.0755,76.9065 280.515333,77.0180833 280.81,77.24125 C281.104667,77.4644167 281.252,77.7991667 281.252,78.2455 C281.252,78.6875 281.100333,79.0265833 280.797,79.26275 C280.493667,79.4989167 280.058167,79.617 279.4905,79.617 L279.4905,79.617 Z M280.043,84.362 L279.003,84.362 L279.003,81.4305 L280.043,81.4305 C280.684333,81.4305 281.175083,81.5594167 281.51525,81.81725 C281.855417,82.0750833 282.0255,82.4445 282.0255,82.9255 C282.0255,83.3978333 281.85975,83.7553333 281.52825,83.998 C281.19675,84.2406667 280.701667,84.362 280.043,84.362 L280.043,84.362 Z M287.312167,86 L287.312167,82.282 C287.312167,82.035 287.383667,81.80425 287.526667,81.58975 C287.669667,81.37525 287.858167,81.2008333 288.092167,81.0665 C288.326167,80.9321667 288.573167,80.865 288.833167,80.865 C289.002167,80.865 289.18525,80.89425 289.382417,80.95275 C289.579583,81.01125 289.751833,81.0903333 289.899167,81.19 L289.899167,81.19 L290.731167,79.5065 C290.562167,79.3981667 290.352,79.3093333 290.100667,79.24 C289.849333,79.1706667 289.606667,79.136 289.372667,79.136 C288.961,79.136 288.576417,79.23675 288.218917,79.43825 C287.861417,79.63975 287.559167,79.9268333 287.312167,80.2995 L287.312167,80.2995 L287.312167,79.344 L285.316667,79.344 L285.316667,86 L287.312167,86 Z M294.490334,86.208 C295.192334,86.208 295.829334,86.0563333 296.401334,85.753 C296.973334,85.4496667 297.415334,85.0293333 297.727334,84.492 L297.727334,84.492 L296.290834,83.7705 C296.043834,84.0651667 295.787084,84.2796667 295.520584,84.414 C295.254084,84.5483333 294.9475,84.6155 294.600834,84.6155 C294.2325,84.6155 293.909667,84.5450833 293.632334,84.40425 C293.355,84.2634167 293.139417,84.0673333 292.985584,83.816 C292.83175,83.5646667 292.754834,83.27 292.754834,82.932 L292.754834,82.932 L297.857334,82.932 C297.870334,82.8193333 297.877917,82.7424167 297.880084,82.70125 C297.88225,82.6600833 297.883334,82.6113333 297.883334,82.555 C297.883334,81.8746667 297.737084,81.2788333 297.444584,80.7675 C297.152084,80.2561667 296.74475,79.8564167 296.222584,79.56825 C295.700417,79.2800833 295.092667,79.136 294.399334,79.136 C293.879334,79.136 293.396167,79.2259167 292.949834,79.40575 C292.5035,79.5855833 292.111334,79.8369167 291.773334,80.15975 C291.435334,80.4825833 291.172084,80.8585 290.983584,81.2875 C290.795084,81.7165 290.700834,82.178 290.700834,82.672 C290.700834,83.3436667 290.867667,83.946 291.201334,84.479 C291.535,85.012 291.98675,85.4334167 292.556584,85.74325 C293.126417,86.0530833 293.771,86.208 294.490334,86.208 Z M295.920334,81.827 L292.826334,81.827 C292.856667,81.5713333 292.939,81.3503333 293.073334,81.164 C293.207667,80.9776667 293.385334,80.8346667 293.606334,80.735 C293.827334,80.6353333 294.083,80.5855 294.373334,80.5855 C294.646334,80.5855 294.891167,80.6353333 295.107834,80.735 C295.3245,80.8346667 295.50325,80.9776667 295.644084,81.164 C295.784917,81.3503333 295.877,81.5713333 295.920334,81.827 L295.920334,81.827 Z M301.194,86 L301.194,82.061 C301.194,81.801 301.251417,81.5680833 301.36625,81.36225 C301.481084,81.1564167 301.64575,80.9939167 301.86025,80.87475 C302.07475,80.7555833 302.329334,80.696 302.624,80.696 C303.057334,80.696 303.398584,80.82925 303.64775,81.09575 C303.896917,81.36225 304.0215,81.7338333 304.0215,82.2105 L304.0215,82.2105 L304.0215,86 L306.017,86 L306.017,81.788 C306.017,81.2593333 305.9065,80.79675 305.6855,80.40025 C305.4645,80.00375 305.160084,79.6939167 304.77225,79.47075 C304.384417,79.2475833 303.934834,79.136 303.4235,79.136 C302.959834,79.136 302.53625,79.2226667 302.15275,79.396 C301.76925,79.5693333 301.449667,79.799 301.194,80.085 L301.194,80.085 L301.194,79.344 L299.1985,79.344 L299.1985,86 L301.194,86 Z M309.763167,86 L309.763167,82.061 C309.763167,81.801 309.820584,81.5680833 309.935417,81.36225 C310.05025,81.1564167 310.214917,80.9939167 310.429417,80.87475 C310.643917,80.7555833 310.8985,80.696 311.193167,80.696 C311.6265,80.696 311.96775,80.82925 312.216917,81.09575 C312.466084,81.36225 312.590667,81.7338333 312.590667,82.2105 L312.590667,82.2105 L312.590667,86 L314.586167,86 L314.586167,81.788 C314.586167,81.2593333 314.475667,80.79675 314.254667,80.40025 C314.033667,80.00375 313.72925,79.6939167 313.341417,79.47075 C312.953584,79.2475833 312.504,79.136 311.992667,79.136 C311.529,79.136 311.105417,79.2226667 310.721917,79.396 C310.338417,79.5693333 310.018834,79.799 309.763167,80.085 L309.763167,80.085 L309.763167,79.344 L307.767667,79.344 L307.767667,86 L309.763167,86 Z M319.534834,86.208 C320.236834,86.208 320.873834,86.0563333 321.445834,85.753 C322.017834,85.4496667 322.459834,85.0293333 322.771834,84.492 L322.771834,84.492 L321.335334,83.7705 C321.088334,84.0651667 320.831584,84.2796667 320.565084,84.414 C320.298584,84.5483333 319.992001,84.6155 319.645334,84.6155 C319.277001,84.6155 318.954167,84.5450833 318.676834,84.40425 C318.399501,84.2634167 318.183917,84.0673333 318.030084,83.816 C317.876251,83.5646667 317.799334,83.27 317.799334,82.932 L317.799334,82.932 L322.901834,82.932 C322.914834,82.8193333 322.922417,82.7424167 322.924584,82.70125 C322.926751,82.6600833 322.927834,82.6113333 322.927834,82.555 C322.927834,81.8746667 322.781584,81.2788333 322.489084,80.7675 C322.196584,80.2561667 321.789251,79.8564167 321.267084,79.56825 C320.744917,79.2800833 320.137167,79.136 319.443834,79.136 C318.923834,79.136 318.440667,79.2259167 317.994334,79.40575 C317.548001,79.5855833 317.155834,79.8369167 316.817834,80.15975 C316.479834,80.4825833 316.216584,80.8585 316.028084,81.2875 C315.839584,81.7165 315.745334,82.178 315.745334,82.672 C315.745334,83.3436667 315.912167,83.946 316.245834,84.479 C316.579501,85.012 317.031251,85.4334167 317.601084,85.74325 C318.170917,86.0530833 318.815501,86.208 319.534834,86.208 Z M320.964834,81.827 L317.870834,81.827 C317.901167,81.5713333 317.983501,81.3503333 318.117834,81.164 C318.252167,80.9776667 318.429834,80.8346667 318.650834,80.735 C318.871834,80.6353333 319.127501,80.5855 319.417834,80.5855 C319.690834,80.5855 319.935667,80.6353333 320.152334,80.735 C320.369001,80.8346667 320.547751,80.9776667 320.688584,81.164 C320.829417,81.3503333 320.921501,81.5713333 320.964834,81.827 L320.964834,81.827 Z M326.238501,86 L326.238501,82.282 C326.238501,82.035 326.310001,81.80425 326.453001,81.58975 C326.596001,81.37525 326.784501,81.2008333 327.018501,81.0665 C327.252501,80.9321667 327.499501,80.865 327.759501,80.865 C327.928501,80.865 328.111584,80.89425 328.308751,80.95275 C328.505917,81.01125 328.678167,81.0903333 328.825501,81.19 L328.825501,81.19 L329.657501,79.5065 C329.488501,79.3981667 329.278334,79.3093333 329.027001,79.24 C328.775667,79.1706667 328.533001,79.136 328.299001,79.136 C327.887334,79.136 327.502751,79.23675 327.145251,79.43825 C326.787751,79.63975 326.485501,79.9268333 326.238501,80.2995 L326.238501,80.2995 L326.238501,79.344 L324.243001,79.344 L324.243001,86 L326.238501,86 Z M333.533667,86.208 C334.270334,86.208 334.933334,86.0574167 335.522667,85.75625 C336.112001,85.4550833 336.578917,85.0390833 336.923417,84.50825 C337.267917,83.9774167 337.440167,83.3653333 337.440167,82.672 C337.440167,81.9786667 337.267917,81.3665833 336.923417,80.83575 C336.578917,80.3049167 336.112001,79.8889167 335.522667,79.58775 C334.933334,79.2865833 334.270334,79.136 333.533667,79.136 C332.801334,79.136 332.139417,79.2865833 331.547917,79.58775 C330.956417,79.8889167 330.488417,80.3049167 330.143917,80.83575 C329.799417,81.3665833 329.627167,81.9786667 329.627167,82.672 C329.627167,83.3653333 329.800501,83.9774167 330.147167,84.50825 C330.493834,85.0390833 330.961834,85.4550833 331.551167,85.75625 C332.140501,86.0574167 332.801334,86.208 333.533667,86.208 Z M333.540167,84.505 C333.197834,84.505 332.889084,84.427 332.613917,84.271 C332.338751,84.115 332.121001,83.8994167 331.960667,83.62425 C331.800334,83.3490833 331.720167,83.0316667 331.720167,82.672 C331.720167,82.3123333 331.800334,81.9949167 331.960667,81.71975 C332.121001,81.4445833 332.338751,81.229 332.613917,81.073 C332.889084,80.917 333.197834,80.839 333.540167,80.839 C333.878167,80.839 334.185834,80.917 334.463167,81.073 C334.740501,81.229 334.959334,81.4445833 335.119667,81.71975 C335.280001,81.9949167 335.360167,82.3123333 335.360167,82.672 C335.360167,83.0316667 335.280001,83.3490833 335.119667,83.62425 C334.959334,83.8994167 334.740501,84.115 334.463167,84.271 C334.185834,84.427 333.878167,84.505 333.540167,84.505 Z" id="Brennero" fill="#645B52" fill-rule="nonzero"></path>
                <g id="Rectangle-2" transform="translate(168.511719, 261.000000)" fill="#FFFFFF">
                    <rect id="Rectangle" x="0.454215116" y="0" width="39.0697674" height="25" rx="3"></rect>
                </g>
                <text id="A22" font-family="Spartan-SemiBold, Spartan" font-size="11" font-weight="500" letter-spacing="0.105833" fill="#645B52">
                    <tspan x="175.511719" y="278">A22</tspan>
                </text>
            </g>
        </g>
    </g>
</svg>